<svg xmlns="http://www.w3.org/2000/svg" width="205" height="49" viewBox="0 0 205 49">
    <defs>
        <linearGradient id="hmmclt7ixa" x1="-8.808%" x2="91.235%" y1="74.763%" y2="14.082%">
            <stop offset="20%" stop-color="#00759B"/>
            <stop offset="80%" stop-color="#29ABE2"/>
        </linearGradient>
    </defs>
    <g fill="none" fill-rule="evenodd">
        <g fill-rule="nonzero">
            <g>
                <g>
                    <path fill="#00759B" d="M32.98 24.711l-.339-.338-.254.254c-.509.507-1.06.971-1.653 1.394-.467.338-.975.718-1.654 1.14l-.381.254.466.464c.297.296 2.501 2.45 3.73 5.45.806 1.985.933 4.097.34 5.871-.678 2.07-2.077 3.506-4.197 4.224-1.314.465-2.84.592-4.409.296-1.017-.17-1.95-.465-2.84-.845l-14.752-5.83-6.995 3 20.815 7.772c1.95.718 3.942 1.099 5.85 1.099.805 0 1.653-.085 2.416-.212 4.112-.676 9.114-3.252 9.538-11.574.042-.211.254-6.716-5.68-12.419z" transform="translate(-197 -3477) translate(197 3477) translate(0 .078)"/>
                    <path fill="url(#hmmclt7ixa)" d="M37.77 9.631c-1.144-6.125-5.34-8.322-8.647-9.124-3.095-.718-6.359-.465-9.496.802L1.484 8.533C.594 8.87.042 9.716.042 10.687V40.13L25.053 29.4c2.12-.887 3.985-1.985 5.554-3.21 9.198-7.097 7.248-16.179 7.164-16.559zM5.597 31.85V13.095c0-.465.296-.887.72-1.056l15.007-6.167c1.61-.676 3.264-.93 4.832-.803 2.544.211 5.766 1.394 6.783 6.083 0 .042 1.653 5.407-5.468 11.194-2.078 1.69-4.579 3.083-7.334 4.14L5.596 31.85z" transform="translate(-197 -3477) translate(197 3477) translate(0 .078)"/>
                </g>
                <g fill="#000">
                    <path d="M13.843 12.667c0 4.083-2.954 6.916-6.837 6.916-2.49 0-4.6-1.208-5.655-3.333v3.208H.084V.083h1.309v8.875C2.49 6.917 4.558 5.75 7.006 5.75c3.883 0 6.837 2.833 6.837 6.917zm-1.35 0c0-3.417-2.406-5.75-5.571-5.75-3.166 0-5.571 2.333-5.571 5.75 0 3.416 2.363 5.75 5.57 5.75 3.166 0 5.572-2.334 5.572-5.75zM28.826 13H16.924c.127 3.25 2.532 5.417 5.866 5.417 1.73 0 3.377-.625 4.432-1.917l.76.875c-1.224 1.458-3.124 2.208-5.234 2.208-4.178 0-7.132-2.875-7.132-6.916 0-4.042 2.827-6.917 6.626-6.917 3.798 0 6.584 2.833 6.584 6.875V13zm-11.86-1.042H27.56C27.39 9 25.196 6.875 22.284 6.875c-2.954.042-5.107 2.125-5.318 5.083zM44.441.125V19.5h-1.308v-3.208c-1.097 2.125-3.165 3.333-5.655 3.333-3.883 0-6.837-2.833-6.837-6.917 0-4.083 2.954-6.916 6.837-6.916 2.448 0 4.516 1.208 5.655 3.25V.125h1.308zm-1.308 12.542c0-3.417-2.363-5.75-5.57-5.75-3.166 0-5.572 2.333-5.572 5.75 0 3.416 2.364 5.75 5.571 5.75 3.165 0 5.571-2.334 5.571-5.75zM58.707 10.833V19.5H57.44v-2.417c-.886 1.584-2.574 2.542-4.98 2.542-3.08 0-4.98-1.583-4.98-3.875 0-2.083 1.308-3.833 5.15-3.833h4.726v-1.084c0-2.541-1.393-3.875-4.094-3.875-1.899 0-3.63.709-4.769 1.709l-.675-.959c1.393-1.208 3.376-1.916 5.529-1.916 3.418-.042 5.36 1.666 5.36 5.041zm-1.351 4.625v-2.541h-4.727c-2.87 0-3.883 1.166-3.883 2.75 0 1.791 1.393 2.875 3.84 2.875 2.364 0 3.968-1.125 4.77-3.084zM74.111 11.542V19.5h-1.308v-7.875c0-3.083-1.688-4.708-4.474-4.708-3.25 0-5.233 2.083-5.233 5.291v7.25h-1.309V.083h1.309v8.584c.97-1.875 2.87-2.959 5.444-2.959 3.334.042 5.571 2 5.571 5.834z" transform="translate(-197 -3477) translate(197 3477) translate(53 15.078)"/>
                    <g>
                        <path d="M15.869 12.458c0 4.417-3.081 7.25-7.09 7.25-1.9 0-3.461-.583-4.474-1.833V19.5H.38V.125h4.136v6.833C5.57 5.792 7.048 5.25 8.82 5.25c3.925 0 7.048 2.792 7.048 7.208zm-4.22 0c0-2.416-1.562-3.875-3.63-3.875-2.068 0-3.63 1.459-3.63 3.875 0 2.417 1.562 3.875 3.63 3.875 2.068.042 3.63-1.416 3.63-3.875zM17.937 5.458H22.073V19.5H17.937zM23.888 18.208l1.393-2.916c1.266.791 3.207 1.375 4.937 1.375 1.9 0 2.617-.5 2.617-1.292 0-2.292-8.61.042-8.61-5.583 0-2.667 2.448-4.542 6.584-4.542 1.942 0 4.136.458 5.487 1.208l-1.393 2.917c-1.393-.792-2.785-1.042-4.094-1.042-1.857 0-2.659.584-2.659 1.292 0 2.417 8.61.083 8.61 5.625 0 2.625-2.448 4.458-6.71 4.458-2.406 0-4.854-.666-6.162-1.5zM53.22 11.458V19.5h-4.136v-7.417c0-2.291-1.055-3.333-2.87-3.333-1.984 0-3.419 1.208-3.419 3.792V19.5H38.66V5.458h3.925v1.667c1.098-1.208 2.786-1.875 4.727-1.875 3.377 0 5.909 1.917 5.909 6.208zM55.752 5.458H59.888000000000005V19.5H55.752zM62.252 18.208l1.392-2.916c1.267.791 3.208 1.375 4.938 1.375 1.9 0 2.617-.5 2.617-1.292 0-2.292-8.61.042-8.61-5.583 0-2.667 2.448-4.542 6.584-4.542 1.942 0 4.136.458 5.487 1.208l-1.393 2.917c-1.393-.792-2.785-1.042-4.094-1.042-1.857 0-2.659.584-2.659 1.292 0 2.417 8.61.083 8.61 5.625 0 2.625-2.448 4.458-6.71 4.458-2.406 0-4.854-.666-6.162-1.5z" transform="translate(-197 -3477) translate(197 3477) translate(53 15.078) translate(76.39)"/>
                    </g>
                </g>
            </g>
        </g>
    </g>
</svg>
