<svg xmlns="http://www.w3.org/2000/svg" xmlns:xlink="http://www.w3.org/1999/xlink" width="153" height="57" viewBox="0 0 153 57">
    <defs>
        <path id="0h8qx19qva" d="M0 0.32L56.68 0.32 56.68 57 0 57z"/>
        <path id="2q76rh2mdc" d="M0 12.622l.04-.002c6.256 0 11.628 3.777 13.98 9.18 7.132 0 10.656-8.652 5.595-13.693C14.583 3.097 7.652 0 0 0v12.622z"/>
        <path id="hnd0jj3htf" d="M0 57L151.978 57 151.978 0.32 0 0.32z"/>
        <linearGradient id="bzw1ypy3vd" x1="0%" x2="100%" y1="49.999%" y2="49.999%">
            <stop offset="0%" stop-color="#008CF7"/>
            <stop offset="100%" stop-color="#002F59"/>
        </linearGradient>
    </defs>
    <g fill="none" fill-rule="evenodd">
        <g>
            <g>
                <g transform="translate(-1067 -2717) translate(1067 2717) translate(.136)">
                    <mask id="1p74mi8nlb" fill="#fff">
                        <use xlink:href="#0h8qx19qva"/>
                    </mask>
                    <path fill="#008DF8" d="M28.392 34.867H56.68v-6.32h-.003c-.002-.504-.018-1.004-.046-1.502-.011-.203-.033-.403-.048-.605-.023-.29-.043-.58-.074-.868-.027-.246-.063-.488-.096-.732-.032-.24-.062-.482-.1-.72-.041-.256-.09-.507-.139-.76-.042-.226-.084-.452-.132-.676-.016-.077-.028-.155-.045-.232h-.009C53.158 9.788 41.858.32 28.34.32 12.688.32 0 13.008 0 28.66S12.688 57 28.34 57h28.34v-6.408c0-3.537-2.867-6.405-6.404-6.405H28.34c-8.556-.023-15.486-6.965-15.486-15.527 0-8.576 6.952-15.527 15.527-15.527 6.367 0 11.835 3.835 14.23 9.32H28.392c-3.428 0-6.207 2.779-6.207 6.207 0 3.41 2.751 6.177 6.155 6.205v.002h.052z" mask="url(#1p74mi8nlb)"/>
                </g>
                <g transform="translate(-1067 -2717) translate(1067 2717) translate(28.7 .5)">
                    <mask id="1sbubgm31e" fill="#fff">
                        <use xlink:href="#2q76rh2mdc"/>
                    </mask>
                    <path fill="url(#bzw1ypy3vd)" d="M0 12.622l.04-.002c6.256 0 11.628 3.777 13.98 9.18 7.132 0 10.656-8.652 5.595-13.693C14.583 3.097 7.652 0 0 0v12.622z" mask="url(#1sbubgm31e)"/>
                </g>
                <g transform="translate(-1067 -2717) translate(1067 2717) translate(.136)">
                    <path fill="#002F59" d="M73.018 50.98h2.521c-.06-.702-.568-1.193-1.264-1.193-.69 0-1.196.49-1.257 1.193m2.974.362h-2.974c.054.75.622 1.248 1.399 1.248.432 0 .818-.157 1.089-.47l.27.313c-.318.382-.811.587-1.372.587-1.109 0-1.866-.764-1.866-1.828s.737-1.821 1.737-1.821 1.724.744 1.724 1.821c0 .04-.007.095-.007.15"/>
                    <mask id="aj5ann90zg" fill="#fff">
                        <use xlink:href="#hnd0jj3htf"/>
                    </mask>
                    <path fill="#002F59" d="M76.981 52.986L77.461 52.986 77.461 47.925 76.981 47.925zM78.922 50.98h2.521c-.06-.702-.568-1.193-1.264-1.193-.69 0-1.196.49-1.257 1.193m2.974.362h-2.974c.054.75.622 1.248 1.399 1.248.433 0 .818-.157 1.089-.47l.27.313c-.317.382-.811.587-1.372.587-1.108 0-1.866-.764-1.866-1.828s.737-1.821 1.737-1.821 1.724.744 1.724 1.821c0 .04-.007.095-.007.15M82.527 51.192c0-1.07.77-1.821 1.832-1.821.601 0 1.109.24 1.392.709l-.358.246c-.243-.362-.622-.532-1.034-.532-.777 0-1.346.559-1.346 1.398 0 .846.569 1.398 1.346 1.398.412 0 .79-.164 1.034-.525l.358.246c-.283.463-.79.708-1.392.708-1.061 0-1.832-.757-1.832-1.827M88.606 52.768c-.19.17-.473.251-.75.251-.67 0-1.041-.38-1.041-1.043v-2.169h-.636v-.409h.636v-.784h.48v.784h1.081v.41h-1.082v2.141c0 .423.217.655.616.655.196 0 .392-.062.527-.184l.17.348zM91.27 49.37v.471c-.04 0-.08-.006-.114-.006-.743 0-1.197.477-1.197 1.323v1.828h-.48v-3.588h.46v.703c.223-.478.676-.73 1.332-.73M94.875 51.192c0-.84-.561-1.398-1.318-1.398s-1.325.559-1.325 1.398c0 .84.568 1.398 1.325 1.398s1.318-.559 1.318-1.398m-3.13 0c0-1.064.77-1.821 1.812-1.821 1.04 0 1.804.757 1.804 1.821s-.763 1.827-1.804 1.827-1.812-.763-1.812-1.827M99.616 50.905v2.08h-.48v-2.032c0-.757-.392-1.146-1.068-1.146-.763 0-1.244.478-1.244 1.296v1.883h-.48v-3.588h.46v.661c.257-.436.737-.688 1.352-.688.865 0 1.46.505 1.46 1.534M100.923 52.986L101.403 52.986 101.403 49.398 100.923 49.398zM102.384 51.192c0-1.07.77-1.821 1.832-1.821.601 0 1.108.24 1.392.709l-.358.246c-.244-.362-.622-.532-1.034-.532-.778 0-1.346.559-1.346 1.398 0 .846.568 1.398 1.346 1.398.412 0 .79-.164 1.034-.525l.358.246c-.284.463-.791.708-1.392.708-1.062 0-1.832-.757-1.832-1.827M111.154 52.986h.48v-3.588h-.48v3.588zm-1.677-5.095c.264 0 .534.075.71.225l-.162.361c-.135-.116-.324-.177-.527-.177-.412 0-.629.232-.629.676v.422h1.095v.41h-1.082v3.178h-.48v-3.179h-.635v-.409h.636v-.443c0-.642.378-1.064 1.074-1.064zM112.481 52.577l.216-.383c.284.226.764.403 1.265.403.676 0 .953-.232.953-.586 0-.935-2.305-.198-2.305-1.617 0-.587.5-1.023 1.405-1.023.46 0 .96.13 1.257.334l-.208.389c-.311-.218-.684-.307-1.049-.307-.642 0-.925.252-.925.594 0 .968 2.305.238 2.305 1.616 0 .62-.541 1.022-1.467 1.022-.588 0-1.156-.19-1.447-.442M115.924 51.192c0-1.07.77-1.821 1.832-1.821.601 0 1.108.24 1.392.709l-.358.246c-.244-.362-.622-.532-1.034-.532-.778 0-1.346.559-1.346 1.398 0 .846.568 1.398 1.346 1.398.412 0 .79-.164 1.034-.525l.358.246c-.284.463-.791.708-1.392.708-1.062 0-1.832-.757-1.832-1.827M122.294 51.909v-.588h-1.116c-.69 0-.913.273-.913.642 0 .416.332.675.9.675.54 0 .94-.26 1.129-.73m.48-1.146v2.224h-.46v-.56c-.217.369-.636.593-1.224.593-.804 0-1.298-.422-1.298-1.043 0-.552.352-1.016 1.373-1.016h1.129v-.218c0-.614-.346-.948-1.008-.948-.46 0-.892.163-1.183.423l-.216-.362c.358-.307.885-.484 1.447-.484.919 0 1.44.463 1.44 1.391M124.08 52.986L124.56 52.986 124.56 47.925 124.08 47.925zM130.443 51.192c0-.84-.567-1.398-1.318-1.398-.757 0-1.325.559-1.325 1.398 0 .84.568 1.398 1.325 1.398.75 0 1.318-.559 1.318-1.398zm.473-3.267v5.06h-.46v-.708c-.29.484-.784.742-1.372.742-1.014 0-1.77-.742-1.77-1.827s.756-1.821 1.77-1.821c.568 0 1.054.245 1.352.709v-2.155h.48zM132.379 50.98h2.521c-.061-.702-.568-1.193-1.264-1.193-.69 0-1.197.49-1.257 1.193m2.974.362h-2.974c.054.75.621 1.248 1.398 1.248.433 0 .819-.157 1.089-.47l.27.313c-.317.382-.81.587-1.372.587-1.108 0-1.865-.764-1.865-1.828s.737-1.821 1.737-1.821 1.724.744 1.724 1.821c0 .04-.007.095-.007.15M139.262 49.398L137.68 52.986 137.187 52.986 135.612 49.398 136.112 49.398 137.443 52.454 138.789 49.398zM139.94 52.986L140.42 52.986 140.42 49.398 139.94 49.398zM141.401 51.192c0-1.07.771-1.821 1.832-1.821.602 0 1.109.24 1.393.709l-.358.246c-.244-.362-.623-.532-1.035-.532-.777 0-1.345.559-1.345 1.398 0 .846.568 1.398 1.345 1.398.412 0 .791-.164 1.035-.525l.358.246c-.284.463-.791.708-1.393.708-1.06 0-1.832-.757-1.832-1.827M145.628 50.98h2.521c-.06-.702-.567-1.193-1.264-1.193-.69 0-1.197.49-1.257 1.193m2.974.362h-2.974c.054.75.622 1.248 1.399 1.248.433 0 .818-.157 1.088-.47l.27.313c-.317.382-.81.587-1.371.587-1.11 0-1.866-.764-1.866-1.828s.737-1.821 1.737-1.821c1.001 0 1.724.744 1.724 1.821 0 .04-.007.095-.007.15M80.238 24.572h13.166c-.547-3.409-3.08-5.614-6.558-5.614-3.527 0-6.06 2.155-6.608 5.614m20.32 4.561h-20.22c.745 3.36 3.577 5.414 7.65 5.414 1.907 0 3.453-.386 4.821-1.174 1.233-.71 2.793-.44 3.755.612l2.255 2.467c-2.484 2.857-6.21 4.36-11.03 4.36-9.24 0-15.251-5.864-15.251-13.884 0-8.07 6.11-13.886 14.258-13.886 7.85 0 13.91 5.314 13.91 13.986 0 .601-.098 1.454-.148 2.105M114.37 14.045h3.767c1.705 0 3.088 1.395 3.088 3.117v2.898h-6.657v20.352h-4.669c-1.702 0-3.081-1.392-3.081-3.109V20.06h-1.042c-1.702 0-3.082-1.392-3.082-3.11v-2.905h4.124v-1.203c0-6.066 3.676-10.026 10.334-10.026 2.186 0 4.47.451 5.912 1.454l-2.037 5.665c-.845-.602-1.938-.953-3.13-.953-2.285 0-3.528 1.253-3.528 3.91v1.153zM144.377 26.928c0-4.662-2.981-7.47-6.807-7.47-3.874 0-6.856 2.808-6.856 7.47s2.982 7.469 6.856 7.469c3.826 0 6.807-2.807 6.807-7.47m7.6-20.599v34.084h-4.321c-1.701 0-3.08-1.392-3.08-3.108-1.938 2.356-4.77 3.509-8.347 3.509-7.552 0-13.364-5.414-13.364-13.885 0-8.472 5.812-13.886 13.364-13.886 3.28 0 6.061 1.053 7.999 3.259V3.217h4.667c1.703 0 3.083 1.393 3.083 3.111M149.064 52.577l.217-.383c.283.226.763.403 1.264.403.676 0 .953-.232.953-.586 0-.935-2.305-.198-2.305-1.617 0-.587.5-1.023 1.406-1.023.46 0 .96.13 1.257.334l-.21.389c-.31-.218-.683-.307-1.047-.307-.643 0-.926.252-.926.594 0 .968 2.305.238 2.305 1.616 0 .62-.541 1.022-1.467 1.022-.588 0-1.156-.19-1.447-.442" mask="url(#aj5ann90zg)"/>
                </g>
            </g>
        </g>
    </g>
</svg>
